<svg width="284" height="137" viewBox="0 0 284 137" fill="none" xmlns="http://www.w3.org/2000/svg">
<g opacity="0.1">
<path d="M0 2.76527C0 4.30153 1.23077 5.53054 2.76923 5.53054C4.30769 5.53054 5.53846 4.30153 5.53846 2.76527C5.53846 1.22901 4.30769 0 2.76923 0C1.23077 0 0 1.22901 0 2.76527Z" fill="white"/>
<path d="M30.7692 2.76527C30.7692 4.30153 32 5.53054 33.5385 5.53054C35.0769 5.53054 36.3077 4.30153 36.3077 2.76527C36.3077 1.22901 35.0769 0 33.5385 0C32 0 30.7692 1.22901 30.7692 2.76527Z" fill="white"/>
<path d="M61.3846 2.76527C61.3846 4.30153 62.6154 5.53054 64.1538 5.53054C65.6923 5.53054 66.9231 4.30153 66.9231 2.76527C66.9231 1.22901 65.6923 0 64.1538 0C62.6154 0 61.3846 1.22901 61.3846 2.76527Z" fill="white"/>
<path d="M92.1538 2.76527C92.1538 4.30153 93.3846 5.53054 94.923 5.53054C96.4615 5.53054 97.6923 4.30153 97.6923 2.76527C97.6923 1.22901 96.4615 0 94.923 0C93.3846 0 92.1538 1.22901 92.1538 2.76527Z" fill="white"/>
<path d="M122.769 2.76527C122.769 4.30153 124 5.53054 125.538 5.53054C127.077 5.53054 128.308 4.30153 128.308 2.76527C128.308 1.22901 127.077 0 125.538 0C124 0 122.769 1.22901 122.769 2.76527Z" fill="white"/>
<path d="M153.538 2.76527C153.538 4.30153 154.769 5.53054 156.308 5.53054C157.846 5.53054 159.077 4.30153 159.077 2.76527C159.077 1.22901 157.846 0 156.308 0C154.769 0 153.538 1.22901 153.538 2.76527Z" fill="white"/>
<path d="M184.308 2.76527C184.308 4.30153 185.538 5.53054 187.077 5.53054C188.615 5.53054 189.846 4.30153 189.846 2.76527C189.846 1.22901 188.615 0 187.077 0C185.538 0 184.308 1.22901 184.308 2.76527Z" fill="white"/>
<path d="M214.923 2.76527C214.923 4.30153 216.154 5.53054 217.692 5.53054C219.231 5.53054 220.462 4.30153 220.462 2.76527C220.462 1.22901 219.231 0 217.692 0C216.154 0 214.923 1.22901 214.923 2.76527Z" fill="white"/>
<path d="M245.692 2.76527C245.692 4.30153 246.923 5.53054 248.461 5.53054C250 5.53054 251.231 4.30153 251.231 2.76527C251.231 1.22901 250 0 248.461 0C246.923 0 245.692 1.22901 245.692 2.76527Z" fill="white"/>
<path d="M276.308 2.76527C276.308 4.30153 277.538 5.53054 279.077 5.53054C280.615 5.53054 281.846 4.30153 281.846 2.76527C281.846 1.22901 280.615 0 279.077 0C277.538 0 276.308 1.22901 276.308 2.76527Z" fill="white"/>
<path d="M0 28.8817C0 30.418 1.23077 31.647 2.76923 31.647C4.30769 31.647 5.53846 30.418 5.53846 28.8817C5.53846 27.3455 4.30769 26.1164 2.76923 26.1164C1.23077 26.1164 0 27.3455 0 28.8817Z" fill="white"/>
<path d="M30.7692 28.8817C30.7692 30.418 32 31.647 33.5385 31.647C35.0769 31.647 36.3077 30.418 36.3077 28.8817C36.3077 27.3455 35.0769 26.1164 33.5385 26.1164C32 26.1164 30.7692 27.3455 30.7692 28.8817Z" fill="white"/>
<path d="M61.3846 28.8817C61.3846 30.418 62.6154 31.647 64.1538 31.647C65.6923 31.647 66.9231 30.418 66.9231 28.8817C66.9231 27.3455 65.6923 26.1164 64.1538 26.1164C62.6154 26.1164 61.3846 27.3455 61.3846 28.8817Z" fill="white"/>
<path d="M92.1538 28.8817C92.1538 30.418 93.3846 31.647 94.923 31.647C96.4615 31.647 97.6923 30.418 97.6923 28.8817C97.6923 27.3455 96.4615 26.1164 94.923 26.1164C93.3846 26.1164 92.1538 27.3455 92.1538 28.8817Z" fill="white"/>
<path d="M122.769 28.8817C122.769 30.418 124 31.647 125.538 31.647C127.077 31.647 128.308 30.418 128.308 28.8817C128.308 27.3455 127.077 26.1164 125.538 26.1164C124 26.1164 122.769 27.3455 122.769 28.8817Z" fill="white"/>
<path d="M153.538 28.8817C153.538 30.418 154.769 31.647 156.308 31.647C157.846 31.647 159.077 30.418 159.077 28.8817C159.077 27.3455 157.846 26.1164 156.308 26.1164C154.769 26.1164 153.538 27.3455 153.538 28.8817Z" fill="white"/>
<path d="M184.308 28.8817C184.308 30.418 185.538 31.647 187.077 31.647C188.615 31.647 189.846 30.418 189.846 28.8817C189.846 27.3455 188.615 26.1164 187.077 26.1164C185.538 26.1164 184.308 27.3455 184.308 28.8817Z" fill="white"/>
<path d="M214.923 28.8817C214.923 30.418 216.154 31.647 217.692 31.647C219.231 31.647 220.462 30.418 220.462 28.8817C220.462 27.3455 219.231 26.1164 217.692 26.1164C216.154 26.1164 214.923 27.3455 214.923 28.8817Z" fill="white"/>
<path d="M245.692 28.8817C245.692 30.418 246.923 31.647 248.461 31.647C250 31.647 251.231 30.418 251.231 28.8817C251.231 27.3455 250 26.1164 248.461 26.1164C246.923 26.1164 245.692 27.3455 245.692 28.8817Z" fill="white"/>
<path d="M276.308 28.8817C276.308 30.418 277.538 31.647 279.077 31.647C280.615 31.647 281.846 30.418 281.846 28.8817C281.846 27.3455 280.615 26.1164 279.077 26.1164C277.538 26.1164 276.308 27.3455 276.308 28.8817Z" fill="white"/>
<path d="M0 54.9982C0 56.5344 1.23077 57.7635 2.76923 57.7635C4.30769 57.7635 5.53846 56.5344 5.53846 54.9982C5.53846 53.4619 4.30769 52.2329 2.76923 52.2329C1.23077 52.2329 0 53.4619 0 54.9982Z" fill="white"/>
<path d="M30.7692 54.9982C30.7692 56.5344 32 57.7635 33.5385 57.7635C35.0769 57.7635 36.3077 56.5344 36.3077 54.9982C36.3077 53.4619 35.0769 52.2329 33.5385 52.2329C32 52.2329 30.7692 53.4619 30.7692 54.9982Z" fill="white"/>
<path d="M61.3846 54.9982C61.3846 56.5344 62.6154 57.7635 64.1538 57.7635C65.6923 57.7635 66.9231 56.5344 66.9231 54.9982C66.9231 53.4619 65.6923 52.2329 64.1538 52.2329C62.6154 52.2329 61.3846 53.4619 61.3846 54.9982Z" fill="white"/>
<path d="M92.1538 54.9982C92.1538 56.5344 93.3846 57.7635 94.923 57.7635C96.4615 57.7635 97.6923 56.5344 97.6923 54.9982C97.6923 53.4619 96.4615 52.2329 94.923 52.2329C93.3846 52.2329 92.1538 53.4619 92.1538 54.9982Z" fill="white"/>
<path d="M122.769 54.9982C122.769 56.5344 124 57.7635 125.538 57.7635C127.077 57.7635 128.308 56.5344 128.308 54.9982C128.308 53.4619 127.077 52.2329 125.538 52.2329C124 52.2329 122.769 53.4619 122.769 54.9982Z" fill="white"/>
<path d="M153.538 54.9982C153.538 56.5344 154.769 57.7635 156.308 57.7635C157.846 57.7635 159.077 56.5344 159.077 54.9982C159.077 53.4619 157.846 52.2329 156.308 52.2329C154.769 52.2329 153.538 53.4619 153.538 54.9982Z" fill="white"/>
<path d="M184.308 54.9982C184.308 56.5344 185.538 57.7635 187.077 57.7635C188.615 57.7635 189.846 56.5344 189.846 54.9982C189.846 53.4619 188.615 52.2329 187.077 52.2329C185.538 52.2329 184.308 53.4619 184.308 54.9982Z" fill="white"/>
<path d="M214.923 54.9982C214.923 56.5344 216.154 57.7635 217.692 57.7635C219.231 57.7635 220.462 56.5344 220.462 54.9982C220.462 53.4619 219.231 52.2329 217.692 52.2329C216.154 52.2329 214.923 53.4619 214.923 54.9982Z" fill="white"/>
<path d="M245.692 54.9982C245.692 56.5344 246.923 57.7635 248.461 57.7635C250 57.7635 251.231 56.5344 251.231 54.9982C251.231 53.4619 250 52.2329 248.461 52.2329C246.923 52.2329 245.692 53.4619 245.692 54.9982Z" fill="white"/>
<path d="M276.308 54.9982C276.308 56.5344 277.538 57.7635 279.077 57.7635C280.615 57.7635 281.846 56.5344 281.846 54.9982C281.846 53.4619 280.615 52.2329 279.077 52.2329C277.538 52.2329 276.308 53.4619 276.308 54.9982Z" fill="white"/>
<path d="M0 81.1146C0 82.6509 1.23077 83.8799 2.76923 83.8799C4.30769 83.8799 5.53846 82.6509 5.53846 81.1146C5.53846 79.5783 4.30769 78.3493 2.76923 78.3493C1.23077 78.3493 0 79.5783 0 81.1146Z" fill="white"/>
<path d="M30.7692 81.1146C30.7692 82.6509 32 83.8799 33.5385 83.8799C35.0769 83.8799 36.3077 82.6509 36.3077 81.1146C36.3077 79.5783 35.0769 78.3493 33.5385 78.3493C32 78.3493 30.7692 79.5783 30.7692 81.1146Z" fill="white"/>
<path d="M61.3846 81.1146C61.3846 82.6509 62.6154 83.8799 64.1538 83.8799C65.6923 83.8799 66.9231 82.6509 66.9231 81.1146C66.9231 79.5783 65.6923 78.3493 64.1538 78.3493C62.6154 78.3493 61.3846 79.5783 61.3846 81.1146Z" fill="white"/>
<path d="M92.1538 81.1146C92.1538 82.6509 93.3846 83.8799 94.923 83.8799C96.4615 83.8799 97.6923 82.6509 97.6923 81.1146C97.6923 79.5783 96.4615 78.3493 94.923 78.3493C93.3846 78.3493 92.1538 79.5783 92.1538 81.1146Z" fill="white"/>
<path d="M122.769 81.1146C122.769 82.6509 124 83.8799 125.538 83.8799C127.077 83.8799 128.308 82.6509 128.308 81.1146C128.308 79.5783 127.077 78.3493 125.538 78.3493C124 78.3493 122.769 79.5783 122.769 81.1146Z" fill="white"/>
<path d="M153.538 81.1146C153.538 82.6509 154.769 83.8799 156.308 83.8799C157.846 83.8799 159.077 82.6509 159.077 81.1146C159.077 79.5783 157.846 78.3493 156.308 78.3493C154.769 78.3493 153.538 79.5783 153.538 81.1146Z" fill="white"/>
<path d="M184.308 81.1146C184.308 82.6509 185.538 83.8799 187.077 83.8799C188.615 83.8799 189.846 82.6509 189.846 81.1146C189.846 79.5783 188.615 78.3493 187.077 78.3493C185.538 78.3493 184.308 79.5783 184.308 81.1146Z" fill="white"/>
<path d="M214.923 81.1146C214.923 82.6509 216.154 83.8799 217.692 83.8799C219.231 83.8799 220.462 82.6509 220.462 81.1146C220.462 79.5783 219.231 78.3493 217.692 78.3493C216.154 78.3493 214.923 79.5783 214.923 81.1146Z" fill="white"/>
<path d="M245.692 81.1146C245.692 82.6509 246.923 83.8799 248.461 83.8799C250 83.8799 251.231 82.6509 251.231 81.1146C251.231 79.5783 250 78.3493 248.461 78.3493C246.923 78.3493 245.692 79.5783 245.692 81.1146Z" fill="white"/>
<path d="M276.308 81.1146C276.308 82.6509 277.538 83.8799 279.077 83.8799C280.615 83.8799 281.846 82.6509 281.846 81.1146C281.846 79.5783 280.615 78.3493 279.077 78.3493C277.538 78.3493 276.308 79.5783 276.308 81.1146Z" fill="white"/>
<path d="M0 107.231C0 108.767 1.23077 109.996 2.76923 109.996C4.30769 109.996 5.53846 108.767 5.53846 107.231C5.53846 105.695 4.30769 104.466 2.76923 104.466C1.23077 104.466 0 105.695 0 107.231Z" fill="white"/>
<path d="M30.7692 107.231C30.7692 108.767 32 109.996 33.5385 109.996C35.0769 109.996 36.3077 108.767 36.3077 107.231C36.3077 105.695 35.0769 104.466 33.5385 104.466C32 104.466 30.7692 105.695 30.7692 107.231Z" fill="white"/>
<path d="M61.3846 107.231C61.3846 108.767 62.6154 109.996 64.1538 109.996C65.6923 109.996 66.9231 108.767 66.9231 107.231C66.9231 105.695 65.6923 104.466 64.1538 104.466C62.6154 104.466 61.3846 105.695 61.3846 107.231Z" fill="white"/>
<path d="M94.923 109.996C96.4524 109.996 97.6923 108.758 97.6923 107.231C97.6923 105.704 96.4524 104.466 94.923 104.466C93.3936 104.466 92.1538 105.704 92.1538 107.231C92.1538 108.758 93.3936 109.996 94.923 109.996Z" fill="white"/>
<path d="M125.538 109.996C127.068 109.996 128.308 108.758 128.308 107.231C128.308 105.704 127.068 104.466 125.538 104.466C124.009 104.466 122.769 105.704 122.769 107.231C122.769 108.758 124.009 109.996 125.538 109.996Z" fill="white"/>
<path d="M156.308 109.996C157.837 109.996 159.077 108.758 159.077 107.231C159.077 105.704 157.837 104.466 156.308 104.466C154.778 104.466 153.538 105.704 153.538 107.231C153.538 108.758 154.778 109.996 156.308 109.996Z" fill="white"/>
<path d="M184.308 107.231C184.308 108.767 185.538 109.996 187.077 109.996C188.615 109.996 189.846 108.767 189.846 107.231C189.846 105.695 188.615 104.466 187.077 104.466C185.538 104.466 184.308 105.695 184.308 107.231Z" fill="white"/>
<path d="M214.923 107.231C214.923 108.767 216.154 109.996 217.692 109.996C219.231 109.996 220.462 108.767 220.462 107.231C220.462 105.695 219.231 104.466 217.692 104.466C216.154 104.466 214.923 105.695 214.923 107.231Z" fill="white"/>
<path d="M245.692 107.231C245.692 108.767 246.923 109.996 248.461 109.996C250 109.996 251.231 108.767 251.231 107.231C251.231 105.695 250 104.466 248.461 104.466C246.923 104.466 245.692 105.695 245.692 107.231Z" fill="white"/>
<path d="M276.308 107.231C276.308 108.767 277.538 109.996 279.077 109.996C280.615 109.996 281.846 108.767 281.846 107.231C281.846 105.695 280.615 104.466 279.077 104.466C277.538 104.466 276.308 105.695 276.308 107.231Z" fill="white"/>
<path d="M0 133.348C0 134.884 1.23077 136.113 2.76923 136.113C4.30769 136.113 5.53846 134.884 5.53846 133.348C5.53846 131.811 4.30769 130.582 2.76923 130.582C1.23077 130.582 0 131.811 0 133.348Z" fill="white"/>
<path d="M30.7692 133.348C30.7692 134.884 32 136.113 33.5385 136.113C35.0769 136.113 36.3077 134.884 36.3077 133.348C36.3077 131.811 35.0769 130.582 33.5385 130.582C32 130.582 30.7692 131.811 30.7692 133.348Z" fill="white"/>
<path d="M61.3846 133.348C61.3846 134.884 62.6154 136.113 64.1538 136.113C65.6923 136.113 66.9231 134.884 66.9231 133.348C66.9231 131.811 65.6923 130.582 64.1538 130.582C62.6154 130.582 61.3846 131.811 61.3846 133.348Z" fill="white"/>
<path d="M92.1538 133.348C92.1538 134.884 93.3846 136.113 94.923 136.113C96.4615 136.113 97.6923 134.884 97.6923 133.348C97.6923 131.811 96.4615 130.582 94.923 130.582C93.3846 130.582 92.1538 131.811 92.1538 133.348Z" fill="white"/>
<path d="M122.769 133.348C122.769 134.884 124 136.113 125.538 136.113C127.077 136.113 128.308 134.884 128.308 133.348C128.308 131.811 127.077 130.582 125.538 130.582C124 130.582 122.769 131.811 122.769 133.348Z" fill="white"/>
<path d="M153.538 133.348C153.538 134.884 154.769 136.113 156.308 136.113C157.846 136.113 159.077 134.884 159.077 133.348C159.077 131.811 157.846 130.582 156.308 130.582C154.769 130.582 153.538 131.811 153.538 133.348Z" fill="white"/>
<path d="M184.308 133.348C184.308 134.884 185.538 136.113 187.077 136.113C188.615 136.113 189.846 134.884 189.846 133.348C189.846 131.811 188.615 130.582 187.077 130.582C185.538 130.582 184.308 131.811 184.308 133.348Z" fill="white"/>
<path d="M214.923 133.348C214.923 134.884 216.154 136.113 217.692 136.113C219.231 136.113 220.462 134.884 220.462 133.348C220.462 131.811 219.231 130.582 217.692 130.582C216.154 130.582 214.923 131.811 214.923 133.348Z" fill="white"/>
<path d="M245.692 133.348C245.692 134.884 246.923 136.113 248.461 136.113C250 136.113 251.231 134.884 251.231 133.348C251.231 131.811 250 130.582 248.461 130.582C246.923 130.582 245.692 131.811 245.692 133.348Z" fill="white"/>
<path d="M276.308 133.348C276.308 134.884 277.538 136.113 279.077 136.113C280.615 136.113 281.846 134.884 281.846 133.348C281.846 131.811 280.615 130.582 279.077 130.582C277.538 130.582 276.308 131.811 276.308 133.348Z" fill="white"/>
</g>
</svg>
