<svg width="162" height="164" viewBox="0 0 162 164" fill="none" xmlns="http://www.w3.org/2000/svg">
<path d="M81.6104 0C83.3063 0.850509 83.9423 2.21132 83.8999 4.12497C83.8151 8.42004 83.8999 12.7151 83.8575 17.0102C83.8575 19.3066 82.5855 20.7099 80.6353 20.7099C78.7698 20.6674 77.4979 19.264 77.4979 17.0527C77.4979 12.8002 77.5827 8.59014 77.4555 4.3376C77.4131 2.38142 78.0066 0.978085 79.7025 0C80.3385 0 80.9744 0 81.6104 0Z" fill="#14D386"/>
<path d="M59.691 140.929C62.3197 147.181 61.5989 150.668 56.8504 155.473C55.4089 156.919 53.9674 158.407 52.4835 159.853C47.9894 164.106 41.6722 164.063 37.2629 159.726C35.0158 157.557 32.8112 155.303 30.6489 153.092C29.1226 151.561 29.0378 149.647 30.3521 148.286C31.6664 146.968 33.5743 147.053 35.143 148.541C37.2629 150.625 39.3403 152.751 41.4178 154.835C43.7921 157.174 46.0815 157.174 48.4558 154.835C49.9397 153.389 51.3812 151.901 52.8227 150.455C55.4937 147.733 55.5361 145.862 52.8651 143.183C48.0742 138.335 43.3257 133.402 38.5348 128.554C32.7688 122.728 26.9603 116.945 21.1519 111.119C20.3464 110.311 19.456 109.503 18.5657 108.78C17.2938 107.759 15.0467 107.759 13.7324 108.993C11.5701 110.991 9.45027 113.075 7.4576 115.286C5.8889 116.987 6.10088 119.326 7.83917 121.155C10.0014 123.409 12.2909 125.535 14.4108 127.831C15.0467 128.554 15.6403 129.745 15.5131 130.596C15.3859 131.531 14.5803 132.594 13.7324 133.147C12.6725 133.87 11.3157 133.615 10.383 132.679C7.66958 130 4.82897 127.406 2.36992 124.514C-0.979461 120.602 -0.725077 114.649 2.7939 110.821C4.82897 108.61 6.94883 106.441 9.19589 104.4C12.2061 101.678 15.7675 100.913 19.668 102.146C20.6855 102.486 21.2791 102.316 21.9999 101.551C25.0949 98.3613 28.2747 95.2145 31.4969 91.9825C28.6562 89.0483 27.2147 85.6037 28.0203 81.4787C28.8258 77.3963 31.2849 74.6747 35.1854 73.0587C33.2351 69.7417 32.7264 66.2972 34.1255 62.725C35.5246 59.1104 38.2804 56.9416 41.969 55.8784C40.8666 48.8192 43.6225 44.1414 50.406 41.8025C49.6853 38.1028 50.1093 34.6157 52.6955 31.6815C55.6633 28.2794 59.4367 27.1312 63.846 27.9817C64.4395 28.1093 65.2875 27.9392 65.7962 27.5565C68.5945 25.6003 71.6471 25.898 74.6573 26.4508C81.5256 27.6841 88.3516 29.0874 95.22 30.3206C96.4919 30.5758 97.8486 30.4057 99.1629 30.6183C105.522 31.6815 109.381 37.1672 108.406 43.5886C108.363 43.8863 108.321 44.2265 108.278 44.6517C111.246 45.5022 113.705 47.1182 115.359 49.8398C117.012 52.5614 117.224 55.4957 116.588 58.5575C123.117 60.7263 126.17 65.6593 125.068 72.5909C133.801 75.1425 136.6 85.221 130.028 92.025C133.378 95.3846 136.727 98.7441 140.119 102.061C140.331 102.274 141.009 102.274 141.348 102.146C146.139 100.36 150.252 101.296 153.813 104.953C155.424 106.611 157.12 108.227 158.731 109.886C163.098 114.393 163.098 120.815 158.689 125.28C147.369 136.677 136.049 148.031 124.686 159.343C120.319 163.723 113.875 163.638 109.465 159.343C107.6 157.514 105.734 155.728 103.954 153.815C100.732 150.412 99.8837 146.458 101.622 142.077C101.961 141.227 101.792 140.759 101.198 140.164C97.3398 136.379 93.5665 132.509 89.7083 128.725C89.3267 128.342 88.7332 128.002 88.2668 128.002C84.8326 127.874 81.3984 127.789 77.9643 127.746C76.8619 127.704 75.6748 127.534 74.6573 127.831C73.3854 128.172 71.9863 128.597 71.0535 129.49C67.153 133.317 63.4644 137.145 59.691 140.929ZM125.195 96.7029C124.432 97.4258 123.711 98.2338 122.905 98.8716C121.337 100.105 119.259 99.7222 118.199 98.1062C117.351 96.7879 117.563 95.257 118.878 93.9387C121.167 91.5998 123.541 89.3034 125.831 86.9645C127.696 85.0084 127.654 82.1591 125.873 80.3731C124.05 78.5445 121.337 78.502 119.302 80.288C118.411 81.0535 117.648 81.9465 116.8 82.7545C115.147 84.3705 113.281 84.498 111.924 83.0947C110.61 81.7339 110.737 79.8203 112.348 78.1618C114.002 76.4607 115.74 74.8022 117.394 73.1012C119.302 71.06 119.344 68.2108 117.521 66.3822C115.613 64.4686 112.815 64.5111 110.737 66.5098C109.847 67.3603 108.999 68.2533 108.151 69.1038C106.455 70.7623 104.505 70.9324 103.148 69.4866C101.834 68.0832 102.004 66.2546 103.615 64.5961C105.395 62.7675 107.218 61.024 108.999 59.1954C111.034 57.0691 111.034 54.2625 109.169 52.3488C107.303 50.4352 104.463 50.5202 102.343 52.5614C101.495 53.3694 100.689 54.2199 99.8837 55.0279C98.1454 56.7289 96.2375 56.9416 94.8808 55.5807C93.4817 54.2199 93.6513 52.2638 95.3471 50.5627C97.1278 48.7342 98.9509 46.9481 100.732 45.162C101.834 44.0564 102.385 42.6955 102.173 41.1221C101.919 39.2935 100.901 37.9752 99.2053 37.3373C97.3398 36.6144 95.6439 37.0397 94.2448 38.443C91.5314 41.1221 88.8604 43.8437 86.1469 46.5228C85.3838 47.2458 85.2566 47.7561 85.723 48.8192C88.4788 54.8578 85.3838 61.8745 79.1938 63.9157C78.0915 64.2559 76.9467 64.3835 75.7596 64.6387C75.7172 64.8938 75.59 65.1915 75.5476 65.4892C74.6573 71.4002 71.3927 74.7172 65.4571 75.5677C64.5243 75.6953 64.4395 76.2056 64.3547 76.9285C63.7612 82.2017 59.9454 86.0715 54.6882 86.7519C54.2218 86.7944 53.7978 86.922 53.3738 87.0071C52.7803 96.3626 43.5801 100.318 37.1357 96.873C36.7965 96.7029 36.0334 96.9155 35.7366 97.2132C33.7015 99.1693 31.7512 101.168 29.7586 103.124C28.529 104.315 27.2571 105.506 26.3244 106.399C36.2877 116.435 45.9967 126.215 55.7905 136.081C59.4791 132.382 63.2524 128.597 66.9834 124.77C68.8913 122.813 71.2231 121.708 73.8941 121.665C76.9043 121.58 79.9145 121.538 82.9247 121.835C88.0972 122.303 92.6761 121.623 96.1103 117.158C97.4246 115.457 99.5445 115.542 100.859 116.86C102.216 118.221 102.088 120.007 100.604 121.665C99.2477 123.196 97.9758 124.855 96.7887 126.258C99.7565 129.235 103.191 132.722 106.498 136.081C116.122 126.386 125.873 116.562 135.497 106.909C132.021 103.592 128.671 100.19 125.195 96.7029ZM145.588 107.419C144.443 108.057 143.214 108.44 142.408 109.248C131.088 120.517 119.81 131.829 108.533 143.141C106.582 145.097 106.625 147.521 108.533 149.477C110.271 151.263 112.009 153.007 113.79 154.75C115.825 156.749 118.199 156.791 120.234 154.75C131.554 143.481 142.832 132.169 154.11 120.815C156.06 118.859 156.018 116.435 154.11 114.478C152.371 112.65 150.591 110.821 148.683 109.12C147.877 108.44 146.775 108.057 145.588 107.419ZM63.634 69.1889C66.305 69.1038 67.8313 68.2533 68.5945 66.3822C69.4 64.426 69.0608 62.5974 67.5769 61.1091C63.7612 57.2818 59.9878 53.4545 56.1297 49.6697C54.0946 47.7135 51.3388 47.7135 49.4309 49.5421C47.5654 51.3707 47.523 54.2199 49.4733 56.2186C53.2467 60.0884 57.0624 63.9157 60.9206 67.658C61.8109 68.5085 63.0828 68.8912 63.634 69.1889ZM75.378 58.2599C77.7523 57.9622 79.6178 56.4738 80.0417 54.305C80.5081 52.0937 79.8721 51.0731 77.8371 50.1375C71.4351 47.1182 66.6442 42.5254 63.9308 35.849C63.6764 35.2536 63.0404 34.6582 62.4469 34.4881C60.4542 33.8077 58.2919 34.6582 57.1896 36.3593C56.0025 38.1878 56.1721 40.5693 57.7832 42.1852C62.5741 47.0331 67.365 51.881 72.283 56.6439C73.0886 57.4093 74.3181 57.707 75.378 58.2599ZM53.0771 80.6282C55.2393 80.203 56.7232 79.3099 57.4864 77.4388C58.2495 75.5677 57.9104 73.7816 56.5112 72.2932C53.6706 69.4015 50.7876 66.4673 47.8622 63.6181C45.7847 61.5768 42.9441 61.5768 41.0786 63.4905C39.2556 65.3616 39.2556 68.1683 41.2482 70.2095C44.0464 73.1012 46.8447 75.993 49.8125 78.7146C50.6604 79.6502 51.9747 80.0329 53.0771 80.6282ZM46.7175 86.4967C46.6327 86.1991 46.6327 85.306 46.2087 84.7957C44.5128 82.9246 42.8593 81.011 40.8666 79.48C39.2132 78.2468 36.8389 78.8847 35.3974 80.4581C34.0831 81.8615 33.6167 84.3279 34.8038 85.8589C36.2453 87.6875 37.8988 89.5586 39.8067 90.8343C42.6897 92.833 46.6327 90.4516 46.7175 86.4967ZM79.2362 43.7587C82.0344 40.952 84.7054 38.2729 87.4613 35.4662C81.6528 34.5732 75.9292 32.8722 69.612 32.532C71.4351 37.9752 75.1236 41.2072 79.2362 43.7587Z" fill="#14D386"/>
<path d="M25.2645 3.91235C26.07 2.93427 26.6212 1.91365 27.4691 1.3183C28.6138 0.55284 29.9282 0.807993 30.9881 1.74355C32.3872 3.01932 33.7015 4.42266 35.0582 5.74094C37.4749 8.16489 39.9339 10.5888 42.3506 13.0128C44.0465 14.7138 44.1736 16.67 42.7321 18.0308C41.3754 19.3491 39.4675 19.179 37.8565 17.563C34.2103 13.9484 30.5641 10.3337 27.0028 6.6765C26.282 5.9961 25.9428 5.01801 25.2645 3.91235Z" fill="#14D386"/>
<path d="M117.733 15.1391C117.903 14.8414 118.157 13.9909 118.708 13.3955C122.481 9.52572 126.297 5.69843 130.155 1.91366C131.554 0.552851 133.42 0.552851 134.692 1.74356C136.006 3.01933 136.006 4.9755 134.607 6.42136C130.876 10.2487 127.06 13.9909 123.287 17.7757C122.185 18.8813 120.913 19.179 119.514 18.5411C118.326 18.0733 117.691 17.0527 117.733 15.1391Z" fill="#14D386"/>
<path d="M21.8727 143.311C20.1344 143.311 18.7777 141.907 18.7353 140.164C18.7353 138.42 20.2192 136.889 21.9575 136.932C23.6533 136.974 25.0525 138.42 25.0949 140.121C25.1373 141.907 23.6957 143.311 21.8727 143.311Z" fill="#14D386"/>
<path d="M108.448 112.097C106.71 112.097 105.31 110.779 105.268 109.035C105.226 107.249 106.667 105.761 108.405 105.718C110.101 105.718 111.543 107.122 111.628 108.823C111.712 110.566 110.271 112.055 108.448 112.097Z" fill="#14D386"/>
</svg>
