<svg width="142" height="177" viewBox="0 0 142 177" fill="none" xmlns="http://www.w3.org/2000/svg">
<path opacity="0.15" d="M140.084 0C141.234 0 142 0.76211 142 1.90527V117.365C142 117.555 142 117.937 141.808 118.127C141.617 118.318 141.617 118.508 141.425 118.699L83.3692 176.428C82.986 176.809 82.6028 177 82.028 177H-34.084C-34.2756 177 -34.6588 177 -34.8504 176.809C-35.2336 176.619 -35.6168 176.238 -35.8084 175.857C-36 175.666 -36 175.285 -36 175.095V59.6351C-36 59.0635 -35.8084 58.6824 -35.4252 58.3014L22.6308 0.571588C22.8224 0.381061 23.0139 0.190525 23.2056 0.190525C23.3972 -2.90573e-06 23.7804 0 23.972 0H140.084ZM25.8881 3.81055V115.46H138.168V3.81055H25.8881ZM-32.1679 85.5468L22.056 31.6276V18.4812L-32.1679 72.4004V85.5468ZM-32.1679 100.027L22.056 46.1077V32.9612L-32.1679 86.8805V100.027ZM-32.1679 114.507L22.056 60.5877V47.4413L-32.1679 101.361V114.507ZM-32.1679 128.987L22.056 75.0678V61.9214L-32.1679 115.841V128.987ZM-32.1679 143.467L22.056 89.5479V76.4015L-32.1679 130.321V143.467ZM-32.1679 157.947L22.056 104.028V90.8816L-32.1679 144.801V157.947ZM-32.1679 170.522L22.056 116.603V105.552L-32.1679 159.471V170.522ZM54.8202 173.189L109.044 119.27H95.8235L41.5996 173.189H54.8202ZM40.2584 173.189L94.4822 119.27H81.2615L27.0376 173.189H40.2584ZM25.6964 173.189L79.9204 119.27H66.6997L12.4758 173.189H25.6964ZM10.943 173.189L65.1669 119.27H51.9461L-2.27776 173.189H10.943ZM-3.619 173.189L50.6049 119.27H37.3843L-16.8396 173.189H-3.619ZM110.385 119.27L56.1615 173.189H69.3822L123.606 119.27H110.385ZM-18.1808 173.189L36.043 119.27H24.93L-29.2939 173.189H-18.1808ZM135.486 119.27H124.947L70.7233 173.189H81.2615L135.486 119.27ZM-32.1679 60.3972V71.2573L22.056 17.338V6.47794L-32.1679 60.3972Z" fill="white"/>
</svg>
